<?xml version="1.0" standalone="no"?>
<!DOCTYPE svg PUBLIC "-//W3C//DTD SVG 20010904//EN"
 "http://www.w3.org/TR/2001/REC-SVG-20010904/DTD/svg10.dtd">
<svg version="1.0" xmlns="http://www.w3.org/2000/svg"
 width="700.000000pt" height="700.000000pt" viewBox="0 0 700.000000 700.000000"
 preserveAspectRatio="xMidYMid meet">
<metadata>
Created by potrace 1.14, written by Peter Selinger 2001-2017
</metadata>
<g transform="translate(0.000000,700.000000) scale(0.100000,-0.100000)"
fill="#000000" stroke="none">
<path d="M4197 6292 l-697 -697 -349 349 -350 350 -345 -346 c-190 -190 -346
-349 -346 -353 0 -4 313 -320 695 -702 l696 -696 1044 1044 c575 574 1045
1047 1045 1051 0 5 -541 550 -662 665 l-34 33 -697 -698z"/>
<path d="M356 5243 l-347 -347 698 -698 698 -698 -349 -349 -350 -350 346
-345 c190 -190 349 -346 354 -346 5 0 321 313 703 695 l694 695 -1045 1045
c-575 575 -1048 1045 -1050 1045 -3 0 -161 -156 -352 -347z"/>
<path d="M4891 4195 l-694 -695 1047 -1046 c1044 -1045 1047 -1047 1068 -1028
11 11 169 167 350 349 l329 329 -698 698 -698 698 349 349 350 350 -346 346
c-190 190 -350 345 -354 345 -5 -1 -321 -313 -703 -695z"/>
<path d="M2455 1758 c-575 -575 -1045 -1048 -1045 -1051 0 -3 156 -161 347
-352 l347 -346 698 698 698 698 349 -349 350 -350 345 346 c190 190 346 349
346 353 0 4 -313 320 -695 703 l-695 695 -1045 -1045z"/>
</g>
</svg>
